<svg width="70" height="70" viewBox="0 0 70 70" fill="none" xmlns="http://www.w3.org/2000/svg">
<circle cx="35" cy="35" r="33.5" fill="black" stroke="#1B7A0A" stroke-width="3"/>
<path d="M35 14.1667C32.2641 14.1667 29.5551 14.7055 27.0274 15.7525C24.4998 16.7995 22.2032 18.3341 20.2686 20.2686C16.3616 24.1756 14.1667 29.4747 14.1667 35C14.1667 44.2083 20.1458 52.0208 28.4167 54.7917C29.4583 54.9583 29.7917 54.3125 29.7917 53.75V50.2292C24.0208 51.4792 22.7917 47.4375 22.7917 47.4375C21.8333 45.0208 20.4792 44.375 20.4792 44.375C18.5833 43.0833 20.625 43.125 20.625 43.125C22.7083 43.2708 23.8125 45.2708 23.8125 45.2708C25.625 48.4375 28.6875 47.5 29.875 47C30.0625 45.6458 30.6042 44.7292 31.1875 44.2083C26.5625 43.6875 21.7083 41.8958 21.7083 33.9583C21.7083 31.6458 22.5 29.7917 23.8542 28.3125C23.6458 27.7917 22.9167 25.625 24.0625 22.8125C24.0625 22.8125 25.8125 22.25 29.7917 24.9375C31.4375 24.4792 33.2292 24.25 35 24.25C36.7708 24.25 38.5625 24.4792 40.2083 24.9375C44.1875 22.25 45.9375 22.8125 45.9375 22.8125C47.0833 25.625 46.3542 27.7917 46.1458 28.3125C47.5 29.7917 48.2917 31.6458 48.2917 33.9583C48.2917 41.9167 43.4167 43.6667 38.7708 44.1875C39.5208 44.8333 40.2083 46.1042 40.2083 48.0417V53.75C40.2083 54.3125 40.5417 54.9792 41.6042 54.7917C49.875 52 55.8333 44.2083 55.8333 35C55.8333 32.2641 55.2945 29.555 54.2475 27.0274C53.2005 24.4998 51.666 22.2032 49.7314 20.2686C47.7968 18.3341 45.5002 16.7995 42.9726 15.7525C40.445 14.7055 37.7359 14.1667 35 14.1667Z" fill="#1B7A0A"/>
</svg>
