<svg width="42" height="41" viewBox="0 0 42 41" fill="none" xmlns="http://www.w3.org/2000/svg">
<path d="M21 0.166504C18.2641 0.166504 15.555 0.705374 13.0274 1.75235C10.4998 2.79932 8.20316 4.33389 6.26861 6.26845C2.3616 10.1755 0.166666 15.4745 0.166666 20.9998C0.166666 30.2082 6.14583 38.0207 14.4167 40.7915C15.4583 40.9582 15.7917 40.3123 15.7917 39.7498V36.229C10.0208 37.479 8.79167 33.4373 8.79167 33.4373C7.83333 31.0207 6.47917 30.3748 6.47917 30.3748C4.58333 29.0832 6.625 29.1248 6.625 29.1248C8.70833 29.2707 9.8125 31.2707 9.8125 31.2707C11.625 34.4373 14.6875 33.4998 15.875 32.9998C16.0625 31.6457 16.6042 30.729 17.1875 30.2082C12.5625 29.6873 7.70833 27.8957 7.70833 19.9582C7.70833 17.6457 8.5 15.7915 9.85417 14.3123C9.64583 13.7915 8.91667 11.6248 10.0625 8.81234C10.0625 8.81234 11.8125 8.24984 15.7917 10.9373C17.4375 10.479 19.2292 10.2498 21 10.2498C22.7708 10.2498 24.5625 10.479 26.2083 10.9373C30.1875 8.24984 31.9375 8.81234 31.9375 8.81234C33.0833 11.6248 32.3542 13.7915 32.1458 14.3123C33.5 15.7915 34.2917 17.6457 34.2917 19.9582C34.2917 27.9165 29.4167 29.6665 24.7708 30.1873C25.5208 30.8332 26.2083 32.104 26.2083 34.0415V39.7498C26.2083 40.3123 26.5417 40.979 27.6042 40.7915C35.875 37.9998 41.8333 30.2082 41.8333 20.9998C41.8333 18.264 41.2945 15.5549 40.2475 13.0273C39.2005 10.4996 37.6659 8.203 35.7314 6.26845C33.7968 4.33389 31.5002 2.79932 28.9726 1.75235C26.445 0.705374 23.7359 0.166504 21 0.166504Z" fill="#1B7A0A"/>
</svg>
