<svg width="70" height="70" viewBox="0 0 70 70" fill="none" xmlns="http://www.w3.org/2000/svg">
<circle cx="35" cy="35" r="33.5" fill="black" stroke="#1B7A0A" stroke-width="3"/>
<path d="M26.25 14.1667H43.75C50.4167 14.1667 55.8333 19.5833 55.8333 26.25V43.75C55.8333 46.9547 54.5603 50.0282 52.2942 52.2942C50.0281 54.5603 46.9547 55.8333 43.75 55.8333H26.25C19.5833 55.8333 14.1667 50.4167 14.1667 43.75V26.25C14.1667 23.0453 15.4397 19.9719 17.7058 17.7058C19.9718 15.4397 23.0453 14.1667 26.25 14.1667ZM25.8333 18.3333C23.8442 18.3333 21.9365 19.1235 20.53 20.53C19.1235 21.9366 18.3333 23.8442 18.3333 25.8333V44.1667C18.3333 48.3125 21.6875 51.6667 25.8333 51.6667H44.1667C46.1558 51.6667 48.0634 50.8765 49.47 49.47C50.8765 48.0635 51.6667 46.1558 51.6667 44.1667V25.8333C51.6667 21.6875 48.3125 18.3333 44.1667 18.3333H25.8333ZM45.9375 21.4583C46.6282 21.4583 47.2905 21.7327 47.7789 22.2211C48.2673 22.7095 48.5417 23.3718 48.5417 24.0625C48.5417 24.7532 48.2673 25.4156 47.7789 25.9039C47.2905 26.3923 46.6282 26.6667 45.9375 26.6667C45.2468 26.6667 44.5844 26.3923 44.0961 25.9039C43.6077 25.4156 43.3333 24.7532 43.3333 24.0625C43.3333 23.3718 43.6077 22.7095 44.0961 22.2211C44.5844 21.7327 45.2468 21.4583 45.9375 21.4583ZM35 24.5833C37.7627 24.5833 40.4122 25.6808 42.3657 27.6343C44.3192 29.5878 45.4167 32.2373 45.4167 35C45.4167 37.7627 44.3192 40.4122 42.3657 42.3657C40.4122 44.3192 37.7627 45.4167 35 45.4167C32.2373 45.4167 29.5878 44.3192 27.6343 42.3657C25.6808 40.4122 24.5833 37.7627 24.5833 35C24.5833 32.2373 25.6808 29.5878 27.6343 27.6343C29.5878 25.6808 32.2373 24.5833 35 24.5833ZM35 28.75C33.3424 28.75 31.7527 29.4085 30.5806 30.5806C29.4085 31.7527 28.75 33.3424 28.75 35C28.75 36.6576 29.4085 38.2473 30.5806 39.4194C31.7527 40.5915 33.3424 41.25 35 41.25C36.6576 41.25 38.2473 40.5915 39.4194 39.4194C40.5915 38.2473 41.25 36.6576 41.25 35C41.25 33.3424 40.5915 31.7527 39.4194 30.5806C38.2473 29.4085 36.6576 28.75 35 28.75Z" fill="#1B7A0A"/>
</svg>
