<svg width="38" height="38" viewBox="0 0 38 38" fill="green" xmlns="http://www.w3.org/2000/svg">
<path d="M33.5833 0.25C34.6884 0.25 35.7482 0.688987 36.5296 1.47039C37.311 2.25179 37.75 3.3116 37.75 4.41667V33.5833C37.75 34.6884 37.311 35.7482 36.5296 36.5296C35.7482 37.311 34.6884 37.75 33.5833 37.75H4.41667C3.3116 37.75 2.25179 37.311 1.47039 36.5296C0.688987 35.7482 0.25 34.6884 0.25 33.5833V4.41667C0.25 3.3116 0.688987 2.25179 1.47039 1.47039C2.25179 0.688987 3.3116 0.25 4.41667 0.25H33.5833ZM32.5417 32.5417V21.5C32.5417 19.6987 31.8261 17.9713 30.5524 16.6976C29.2787 15.4239 27.5513 14.7083 25.75 14.7083C23.9792 14.7083 21.9167 15.7917 20.9167 17.4167V15.1042H15.1042V32.5417H20.9167V22.2708C20.9167 20.6667 22.2083 19.3542 23.8125 19.3542C24.586 19.3542 25.3279 19.6615 25.8749 20.2084C26.4219 20.7554 26.7292 21.4973 26.7292 22.2708V32.5417H32.5417ZM8.33333 11.8333C9.26159 11.8333 10.1518 11.4646 10.8082 10.8082C11.4646 10.1518 11.8333 9.26159 11.8333 8.33333C11.8333 6.39583 10.2708 4.8125 8.33333 4.8125C7.39955 4.8125 6.50401 5.18344 5.84373 5.84373C5.18344 6.50401 4.8125 7.39955 4.8125 8.33333C4.8125 10.2708 6.39583 11.8333 8.33333 11.8333ZM11.2292 32.5417V15.1042H5.45833V32.5417H11.2292Z" fill="#1B7A0A"/>
</svg>
