<svg width="70" height="70" viewBox="0 0 70 70" fill="none" xmlns="http://www.w3.org/2000/svg">
<circle cx="35" cy="35" r="33.5" fill="black" stroke="#1B7A0A" stroke-width="3"/>
<path d="M49.5833 16.25C50.6884 16.25 51.7482 16.689 52.5296 17.4704C53.311 18.2518 53.75 19.3116 53.75 20.4167V49.5833C53.75 50.6884 53.311 51.7482 52.5296 52.5296C51.7482 53.311 50.6884 53.75 49.5833 53.75H20.4167C19.3116 53.75 18.2518 53.311 17.4704 52.5296C16.689 51.7482 16.25 50.6884 16.25 49.5833V20.4167C16.25 19.3116 16.689 18.2518 17.4704 17.4704C18.2518 16.689 19.3116 16.25 20.4167 16.25H49.5833ZM48.5417 48.5417V37.5C48.5417 35.6987 47.8261 33.9713 46.5524 32.6976C45.2787 31.4239 43.5513 30.7083 41.75 30.7083C39.9792 30.7083 37.9167 31.7917 36.9167 33.4167V31.1042H31.1042V48.5417H36.9167V38.2708C36.9167 36.6667 38.2083 35.3542 39.8125 35.3542C40.586 35.3542 41.3279 35.6615 41.8749 36.2084C42.4219 36.7554 42.7292 37.4973 42.7292 38.2708V48.5417H48.5417ZM24.3333 27.8333C25.2616 27.8333 26.1518 27.4646 26.8082 26.8082C27.4646 26.1518 27.8333 25.2616 27.8333 24.3333C27.8333 22.3958 26.2708 20.8125 24.3333 20.8125C23.3996 20.8125 22.504 21.1834 21.8437 21.8437C21.1834 22.504 20.8125 23.3996 20.8125 24.3333C20.8125 26.2708 22.3958 27.8333 24.3333 27.8333ZM27.2292 48.5417V31.1042H21.4583V48.5417H27.2292Z" fill="#1B7A0A"/>
</svg>
