<svg width="84" height="84" viewBox="0 0 84 84" fill="none" xmlns="http://www.w3.org/2000/svg">
<path d="M8.33333 16.6667V33.3333H62.4167L74.3042 26.1917C74.5105 26.0686 74.6813 25.8941 74.8 25.6852C74.9186 25.4763 74.981 25.2402 74.981 25C74.981 24.7598 74.9186 24.5237 74.8 24.3148C74.6813 24.1059 74.5105 23.9314 74.3042 23.8083L62.4167 16.6667H8.33333ZM41.6667 8.33333H62.4167C63.9288 8.33381 65.4124 8.74575 66.7083 9.525L78.5958 16.6667C80.0343 17.5306 81.2246 18.7521 82.0509 20.2124C82.8773 21.6727 83.3117 23.3221 83.3117 25C83.3117 26.6779 82.8773 28.3273 82.0509 29.7876C81.2246 31.2479 80.0343 32.4694 78.5958 33.3333L66.7083 40.475C65.4124 41.2542 63.9288 41.6662 62.4167 41.6667H41.6667V79.1667C41.6667 80.2717 41.2277 81.3315 40.4463 82.1129C39.6649 82.8943 38.6051 83.3333 37.5 83.3333C36.3949 83.3333 35.3351 82.8943 34.5537 82.1129C33.7723 81.3315 33.3333 80.2717 33.3333 79.1667V41.6667H8.33333C6.1232 41.6667 4.00358 40.7887 2.44078 39.2259C0.877974 37.6631 0 35.5435 0 33.3333V16.6667C0 14.4565 0.877974 12.3369 2.44078 10.7741C4.00358 9.21131 6.1232 8.33333 8.33333 8.33333H33.3333V4.16667C33.3333 3.0616 33.7723 2.00179 34.5537 1.22039C35.3351 0.438987 36.3949 0 37.5 0C38.6051 0 39.6649 0.438987 40.4463 1.22039C41.2277 2.00179 41.6667 3.0616 41.6667 4.16667V8.33333Z" fill="white"/>
</svg>
