<svg width="42" height="42" viewBox="0 0 42 42" fill="none" xmlns="http://www.w3.org/2000/svg">
<path d="M33.2917 18.7082C26.625 14.7498 15.4792 14.3332 9.125 16.3123C8.08333 16.6248 7.04167 15.9998 6.72916 15.0623C6.41666 14.0207 7.04166 12.979 7.97916 12.6665C15.375 10.479 27.5625 10.8957 35.2708 15.479C36.2083 15.9998 36.5208 17.2498 36 18.1873C35.4792 18.9165 34.2292 19.229 33.2917 18.7082ZM33.0833 24.5415C32.5625 25.2707 31.625 25.5832 30.8958 25.0623C25.2708 21.6248 16.7292 20.5832 10.1667 22.6665C9.33333 22.8748 8.39583 22.4582 8.1875 21.6248C7.97916 20.7915 8.39583 19.854 9.22917 19.6457C16.8333 17.354 26.2083 18.4998 32.6667 22.4582C33.2917 22.7707 33.6042 23.8123 33.0833 24.5415ZM30.5833 30.2707C30.1667 30.8957 29.4375 31.104 28.8125 30.6873C23.9167 27.6665 17.7708 27.0415 10.4792 28.7082C9.75 28.9165 9.125 28.3957 8.91666 27.7707C8.70833 27.0415 9.22917 26.4165 9.85417 26.2082C17.7708 24.4373 24.6458 25.1665 30.0625 28.4998C30.7917 28.8123 30.8958 29.6457 30.5833 30.2707ZM21 0.166504C18.2641 0.166504 15.555 0.705374 13.0274 1.75235C10.4998 2.79932 8.20316 4.33389 6.26861 6.26845C2.3616 10.1755 0.166664 15.4745 0.166664 20.9998C0.166664 26.5252 2.3616 31.8242 6.26861 35.7312C8.20316 37.6658 10.4998 39.2004 13.0274 40.2473C15.555 41.2943 18.2641 41.8332 21 41.8332C26.5253 41.8332 31.8244 39.6382 35.7314 35.7312C39.6384 31.8242 41.8333 26.5252 41.8333 20.9998C41.8333 18.264 41.2945 15.5549 40.2475 13.0273C39.2005 10.4996 37.6659 8.203 35.7314 6.26845C33.7968 4.33389 31.5002 2.79932 28.9726 1.75235C26.445 0.705374 23.7359 0.166504 21 0.166504Z" fill="#1B7A0A"/>
</svg>
