<svg width="70" height="70" viewBox="0 0 70 70" fill="none" xmlns="http://www.w3.org/2000/svg">
<circle cx="35" cy="35" r="33.5" fill="black" stroke="#1B7A0A" stroke-width="3"/>
<path d="M47.2917 32.7083C40.625 28.75 29.4792 28.3333 23.125 30.3125C22.0833 30.625 21.0417 30 20.7292 29.0625C20.4167 28.0208 21.0417 26.9792 21.9792 26.6667C29.375 24.4792 41.5625 24.8958 49.2708 29.4792C50.2083 30 50.5208 31.25 50 32.1875C49.4792 32.9167 48.2292 33.2292 47.2917 32.7083ZM47.0833 38.5417C46.5625 39.2708 45.625 39.5833 44.8958 39.0625C39.2708 35.625 30.7292 34.5833 24.1667 36.6667C23.3333 36.875 22.3958 36.4583 22.1875 35.625C21.9792 34.7917 22.3958 33.8542 23.2292 33.6458C30.8333 31.3542 40.2083 32.5 46.6667 36.4583C47.2917 36.7708 47.6042 37.8125 47.0833 38.5417ZM44.5833 44.2708C44.1667 44.8958 43.4375 45.1042 42.8125 44.6875C37.9167 41.6667 31.7708 41.0417 24.4792 42.7083C23.75 42.9167 23.125 42.3958 22.9167 41.7708C22.7083 41.0417 23.2292 40.4167 23.8542 40.2083C31.7708 38.4375 38.6458 39.1667 44.0625 42.5C44.7917 42.8125 44.8958 43.6458 44.5833 44.2708ZM35 14.1667C32.2641 14.1667 29.555 14.7055 27.0274 15.7525C24.4998 16.7995 22.2032 18.3341 20.2686 20.2686C16.3616 24.1756 14.1667 29.4747 14.1667 35C14.1667 40.5254 16.3616 45.8244 20.2686 49.7314C22.2032 51.666 24.4998 53.2005 27.0274 54.2475C29.555 55.2945 32.2641 55.8333 35 55.8333C40.5253 55.8333 45.8244 53.6384 49.7314 49.7314C53.6384 45.8244 55.8333 40.5254 55.8333 35C55.8333 32.2641 55.2945 29.5551 54.2475 27.0274C53.2005 24.4998 51.6659 22.2032 49.7314 20.2686C47.7968 18.3341 45.5002 16.7995 42.9726 15.7525C40.4449 14.7055 37.7359 14.1667 35 14.1667Z" fill="#1B7A0A"/>
</svg>
